<?xml version="1.0" encoding="UTF-8" standalone="no"?>
<svg
   xmlns:dc="http://purl.org/dc/elements/1.1/"
   xmlns:cc="http://creativecommons.org/ns#"
   xmlns:rdf="http://www.w3.org/1999/02/22-rdf-syntax-ns#"
   xmlns:svg="http://www.w3.org/2000/svg"
   xmlns="http://www.w3.org/2000/svg"
   xmlns:xlink="http://www.w3.org/1999/xlink"
   xmlns:sodipodi="http://sodipodi.sourceforge.net/DTD/sodipodi-0.dtd"
   xmlns:inkscape="http://www.inkscape.org/namespaces/inkscape"
   height="32"
   viewBox="0 0 32 32"
   width="32"
   version="1.1"
   id="svg25"
   sodipodi:docname="folder-temp.svg"
   inkscape:version="0.92.3 (2405546, 2018-03-11)">
  <metadata
     id="metadata31">
    <rdf:RDF>
      <cc:Work
         rdf:about="">
        <dc:format>image/svg+xml</dc:format>
        <dc:type
           rdf:resource="http://purl.org/dc/dcmitype/StillImage" />
      </cc:Work>
    </rdf:RDF>
  </metadata>
  <defs
     id="defs29">
    <linearGradient
       inkscape:collect="always"
       id="linearGradient842">
      <stop
         style="stop-color:#00978a;stop-opacity:1"
         offset="0"
         id="stop838" />
      <stop
         style="stop-color:#01515b;stop-opacity:1"
         offset="1"
         id="stop840" />
    </linearGradient>
    <linearGradient
       inkscape:collect="always"
       xlink:href="#linearGradient842"
       id="linearGradient844"
       x1="386.57144"
       y1="522.798"
       x2="414.57144"
       y2="522.798"
       gradientUnits="userSpaceOnUse" />
  </defs>
  <sodipodi:namedview
     pagecolor="#ffffff"
     bordercolor="#666666"
     borderopacity="1"
     objecttolerance="10"
     gridtolerance="10"
     guidetolerance="10"
     inkscape:pageopacity="0"
     inkscape:pageshadow="2"
     inkscape:window-width="1366"
     inkscape:window-height="705"
     id="namedview27"
     showgrid="false"
     inkscape:zoom="7.375"
     inkscape:cx="16"
     inkscape:cy="16"
     inkscape:window-x="0"
     inkscape:window-y="26"
     inkscape:window-maximized="1"
     inkscape:current-layer="g21" />
  <linearGradient
     id="a"
     gradientUnits="userSpaceOnUse"
     x2="27.661022"
     y1="12.610169"
     y2="25.220339"
     x1="3.3898365">
    <stop
       offset="0"
        
       id="stop2"
       style="stop-color:#01748f;stop-opacity:1" />
    <stop
       style="stop-color:#0eb6b8;stop-opacity:1"
       id="stop846"
        
       offset="0.5" />
    <stop
       offset="1"
        
       id="stop4"
       style="stop-color:#2b786f;stop-opacity:1" />
  </linearGradient>
  <g
     transform="translate(-384.571436 -515.798)"
     id="g21">
    <path
       d="m386.57144 518.798v7 1h28v-6h-14.00001l-2-2z"
        
       fill-rule="evenodd"
       id="path7"
       style="fill-opacity:1;fill:url(#linearGradient844)" />
    <path
       d="m397.57143 523.798-1.99999 1h-9v1h6.99999 3z"
       fill-opacity=".235294"
       fill-rule="evenodd"
       id="path9" />
    <path
       d="m13 8-2 2h-9-1v19h11 1 18v-21z"
       fill="url(#a)"
       transform="translate(384.57143 515.798)"
       id="path11"
       style="fill-opacity:1;fill:url(#a)" />
    <g
       fill-opacity=".235294"
       id="g19">
      <path
         d="m397.57143 523.798-2 2h-10v1h11z"
         fill="#fff"
         fill-rule="evenodd"
         id="path13" />
      <path
         d="m398.57143 518.798 1 3h15.00001v-1h-14.00001z"
         fill="#fff"
         fill-rule="evenodd"
         id="path15" />
      <path
         d="m385.57144 543.79797h30v1h-30z"
         id="path17" />
    </g>
  </g>
  <path
     d="m16 13c-2.761424 0-5 2.238576-5 5s2.238576 5 5 5 5-2.238576 5-5-2.238576-5-5-5zm0 1c2.209139 0 4 1.790861 4 4s-1.790861 4-4 4-4-1.790861-4-4 1.790861-4 4-4zm-1 1v3 1h4v-1h-3v-3z"
     fill="#151c1b"
     id="path23" />
</svg>
