<?xml version="1.0" encoding="UTF-8" standalone="no"?>
<!-- Created with Inkscape (http://www.inkscape.org/) -->

<svg
   xmlns:dc="http://purl.org/dc/elements/1.1/"
   xmlns:cc="http://creativecommons.org/ns#"
   xmlns:rdf="http://www.w3.org/1999/02/22-rdf-syntax-ns#"
   xmlns:svg="http://www.w3.org/2000/svg"
   xmlns="http://www.w3.org/2000/svg"
   xmlns:xlink="http://www.w3.org/1999/xlink"
   xmlns:sodipodi="http://sodipodi.sourceforge.net/DTD/sodipodi-0.dtd"
   xmlns:inkscape="http://www.inkscape.org/namespaces/inkscape"
   width="32"
   version="1.1"
   height="32"
   viewBox="0 0 32 32"
   id="svg17"
   sodipodi:docname="folder-development.svg"
   inkscape:version="0.92.3 (2405546, 2018-03-11)">
  <sodipodi:namedview
     pagecolor="#ffffff"
     bordercolor="#666666"
     borderopacity="1"
     objecttolerance="10"
     gridtolerance="10"
     guidetolerance="10"
     inkscape:pageopacity="0"
     inkscape:pageshadow="2"
     inkscape:window-width="1366"
     inkscape:window-height="705"
     id="namedview19"
     showgrid="false"
     inkscape:zoom="7.375"
     inkscape:cx="-10.576271"
     inkscape:cy="16"
     inkscape:window-x="0"
     inkscape:window-y="26"
     inkscape:window-maximized="1"
     inkscape:current-layer="layer1-1" />
  <defs
     id="defs5455">
    <linearGradient
       inkscape:collect="always"
       id="linearGradient830">
      <stop
         style="stop-color:#00978a;stop-opacity:1"
         offset="0"
         id="stop826" />
      <stop
         style="stop-color:#01515b;stop-opacity:1"
         offset="1"
         id="stop828" />
    </linearGradient>
    <linearGradient
       inkscape:collect="always"
       id="linearGradient4172-5">
      <stop
         style="stop-color:#01748f;stop-opacity:1"
         id="stop4174-6" />
      <stop
         id="stop834"
         style="stop-color:#0eb6b8;stop-opacity:1"
         offset="0.5" />
      <stop
         offset="1"
         style="stop-color:#2b786f;stop-opacity:1"
         id="stop4176-6" />
    </linearGradient>
    <linearGradient
       inkscape:collect="always"
       id="linearGradient4342"
       xlink:href="#linearGradient4172-5"
       y1="13.423729"
       y2="25.491526"
       gradientUnits="userSpaceOnUse"
       x2="28.610176"
       x1="5.1525483" />
    <linearGradient
       inkscape:collect="always"
       xlink:href="#linearGradient830"
       id="linearGradient832"
       x1="386.57144"
       y1="522.798"
       x2="414.57144"
       y2="522.798"
       gradientUnits="userSpaceOnUse" />
  </defs>
  <metadata
     id="metadata5458">
    <rdf:RDF>
      <cc:Work
         rdf:about="">
        <dc:format>image/svg+xml</dc:format>
        <dc:type
           rdf:resource="http://purl.org/dc/dcmitype/StillImage" />
      </cc:Work>
    </rdf:RDF>
  </metadata>
  <g
     inkscape:label="Capa 1"
     inkscape:groupmode="layer"
     id="layer1"
     transform="matrix(1 0 0 1 -384.57143 -515.798)">
    <g
       inkscape:label="Capa 1"
       id="layer1-1"
       transform="matrix(1 0 0 1 -0.000006 0)">
      <path
         inkscape:connector-curvature="0"
         style="fill:url(#linearGradient832);fill-rule:evenodd;fill-opacity:1"
         id="path4308"
         d="m 386.57144,518.798 0,7 0,1 28,0 0,-6 -14.00001,0 -2,-2 z" />
      <path
         inkscape:connector-curvature="0"
         style="fill-opacity:0.235294;fill-rule:evenodd"
         id="path4306"
         d="m 397.57143,523.798 -1.99999,1 -9,0 0,1 6.99999,0 3,0 z" />
      <path
         inkscape:connector-curvature="0"
         style="fill:url(#linearGradient4342);fill-opacity:1"
         id="rect4294"
         d="m 13,8 -2,2 -9,0 -1,0 0,19 11,0 1,0 18,0 0,-21 -18,0 z"
         transform="matrix(1 0 0 1 384.57143 515.798)" />
      <path
         inkscape:connector-curvature="0"
         style="fill:#ffffff;fill-opacity:0.235294;fill-rule:evenodd"
         id="path4304"
         d="m 397.57143,523.798 -2,2 -10,0 0,1 11,0 z" />
      <path
         inkscape:connector-curvature="0"
         style="fill:#ffffff;fill-opacity:0.235294;fill-rule:evenodd"
         id="path4310"
         d="m 398.57143,518.798 1,3 15.00001,0 0,-1 -14.00001,0 z" />
      <rect
         width="30"
         x="385.57144"
         y="543.79797"
         height="1"
         style="fill-opacity:0.235294"
         id="rect4292" />
    </g>
    <path
       style="fill:#151c1b"
       id="rect4184"
       d="M 11 13 L 11 23 L 21 23 L 21 13 L 11 13 z M 12 15 L 20 15 L 20 22 L 12 22 L 12 15 z M 15 17 L 15 20 L 17.5 18.5 L 15 17 z "
       transform="matrix(1 0 0 1 384.57143 515.798)" />
  </g>
</svg>
