<?xml version="1.0" encoding="UTF-8" standalone="no"?>
<!-- Created with Inkscape (http://www.inkscape.org/) -->

<svg
   xmlns:dc="http://purl.org/dc/elements/1.1/"
   xmlns:cc="http://creativecommons.org/ns#"
   xmlns:rdf="http://www.w3.org/1999/02/22-rdf-syntax-ns#"
   xmlns:svg="http://www.w3.org/2000/svg"
   xmlns="http://www.w3.org/2000/svg"
   xmlns:xlink="http://www.w3.org/1999/xlink"
   xmlns:sodipodi="http://sodipodi.sourceforge.net/DTD/sodipodi-0.dtd"
   xmlns:inkscape="http://www.inkscape.org/namespaces/inkscape"
   width="32"
   version="1.1"
   height="32"
   viewBox="0 0 32 32"
   id="svg44"
   sodipodi:docname="folder-cloud.svg"
   inkscape:version="0.92.3 (2405546, 2018-03-11)">
  <sodipodi:namedview
     pagecolor="#ffffff"
     bordercolor="#666666"
     borderopacity="1"
     objecttolerance="10"
     gridtolerance="10"
     guidetolerance="10"
     inkscape:pageopacity="0"
     inkscape:pageshadow="2"
     inkscape:window-width="1366"
     inkscape:window-height="705"
     id="namedview46"
     showgrid="false"
     inkscape:zoom="7.375"
     inkscape:cx="-10.576271"
     inkscape:cy="16"
     inkscape:window-x="0"
     inkscape:window-y="26"
     inkscape:window-maximized="1"
     inkscape:current-layer="layer1-0" />
  <defs
     id="defs5455">
    <linearGradient
       inkscape:collect="always"
       id="linearGradient857">
      <stop
         style="stop-color:#00978a;stop-opacity:1"
         offset="0"
         id="stop853" />
      <stop
         style="stop-color:#01515b;stop-opacity:1"
         offset="1"
         id="stop855" />
    </linearGradient>
    <linearGradient
       inkscape:collect="always"
       id="linearGradient4172-5">
      <stop
         style="stop-color:#01748f;stop-opacity:1"
         id="stop4174-6" />
      <stop
         id="stop861"
         style="stop-color:#0eb6b8;stop-opacity:1"
         offset="0.5" />
      <stop
         offset="1"
         style="stop-color:#2b786f;stop-opacity:1"
         id="stop4176-6" />
    </linearGradient>
    <linearGradient
       inkscape:collect="always"
       id="linearGradient4342"
       xlink:href="#linearGradient4172-5"
       y1="12.610169"
       y2="25.627119"
       gradientUnits="userSpaceOnUse"
       x2="27.661022"
       x1="4.4745822" />
    <linearGradient
       inkscape:collect="always"
       xlink:href="#linearGradient857"
       id="linearGradient859"
       x1="386.57144"
       y1="522.798"
       x2="414.57144"
       y2="522.798"
       gradientUnits="userSpaceOnUse" />
  </defs>
  <metadata
     id="metadata5458">
    <rdf:RDF>
      <cc:Work
         rdf:about="">
        <dc:format>image/svg+xml</dc:format>
        <dc:type
           rdf:resource="http://purl.org/dc/dcmitype/StillImage" />
      </cc:Work>
    </rdf:RDF>
  </metadata>
  <g
     inkscape:label="Capa 1"
     inkscape:groupmode="layer"
     id="layer1"
     transform="matrix(1 0 0 1 -384.57143 -515.798)">
    <g
       inkscape:label="Capa 1"
       id="layer1-0"
       transform="matrix(1 0 0 1 -0.000006 0)">
      <path
         inkscape:connector-curvature="0"
         style="fill:url(#linearGradient859);fill-rule:evenodd;fill-opacity:1"
         id="path4308"
         d="m 386.57144,518.798 0,7 0,1 28,0 0,-6 -14.00001,0 -2,-2 z" />
      <path
         inkscape:connector-curvature="0"
         style="fill-opacity:0.235294;fill-rule:evenodd"
         id="path4306"
         d="m 397.57143,523.798 -1.99999,1 -9,0 0,1 6.99999,0 3,0 z" />
      <path
         inkscape:connector-curvature="0"
         style="fill:url(#linearGradient4342);fill-opacity:1"
         id="rect4294"
         d="m 13,8 -2,2 -9,0 -1,0 0,19 11,0 1,0 18,0 0,-21 -18,0 z"
         transform="matrix(1 0 0 1 384.57143 515.798)" />
      <path
         inkscape:connector-curvature="0"
         style="fill:#ffffff;fill-opacity:0.235294;fill-rule:evenodd"
         id="path4304"
         d="m 397.57143,523.798 -2,2 -10,0 0,1 11,0 z" />
      <path
         inkscape:connector-curvature="0"
         style="fill:#ffffff;fill-opacity:0.235294;fill-rule:evenodd"
         id="path4310"
         d="m 398.57143,518.798 1,3 15.00001,0 0,-1 -14.00001,0 z" />
      <rect
         width="30"
         x="385.57144"
         y="543.79797"
         height="1"
         style="fill-opacity:0.235294"
         id="rect4292" />
    </g>
    <rect
       width="0"
       x="351.19043"
       y="514.59546"
       height="10.477185"
       style="fill:#4d4d4d"
       id="rect4035" />
    <rect
       width="0"
       x="356.60422"
       y="530.71735"
       height="10.477185"
       style="fill:#4d4d4d"
       id="rect4035-8" />
    <rect
       width="0"
       x="358.01453"
       y="529.95966"
       height="10.477185"
       style="fill:#4d4d4d"
       id="rect4035-0" />
    <rect
       width="0"
       x="337.84668"
       y="511.89462"
       height="10.477185"
       style="fill:#4d4d4d"
       id="rect4035-06" />
    <rect
       width="0"
       x="343.26047"
       y="528.01648"
       height="10.477185"
       style="fill:#4d4d4d"
       id="rect4035-8-7" />
    <rect
       width="0"
       x="344.67078"
       y="527.25879"
       height="10.477185"
       style="fill:#4d4d4d"
       id="rect4035-0-42" />
    <rect
       width="0"
       x="337.84668"
       y="511.89462"
       height="10.477185"
       style="fill:#4d4d4d"
       id="rect4035-3" />
    <rect
       width="0"
       x="343.26047"
       y="528.01648"
       height="10.477185"
       style="fill:#4d4d4d"
       id="rect4035-8-9" />
    <rect
       width="0"
       x="344.67078"
       y="527.25879"
       height="10.477185"
       style="fill:#4d4d4d"
       id="rect4035-0-4" />
    <rect
       width="0"
       x="337.84668"
       y="511.89462"
       height="10.477185"
       style="fill:#4d4d4d"
       id="rect4035-2" />
    <rect
       width="0"
       x="343.26047"
       y="528.01648"
       height="10.477185"
       style="fill:#4d4d4d"
       id="rect4035-8-99" />
    <rect
       width="0"
       x="344.67078"
       y="527.25879"
       height="10.477185"
       style="fill:#4d4d4d"
       id="rect4035-0-43" />
    <rect
       width="0"
       x="337.84668"
       y="511.89462"
       height="10.477185"
       style="fill:#4d4d4d"
       id="rect4035-3-9" />
    <rect
       width="0"
       x="343.26047"
       y="528.01648"
       height="10.477185"
       style="fill:#4d4d4d"
       id="rect4035-8-9-9" />
    <rect
       width="0"
       x="344.67078"
       y="527.25879"
       height="10.477185"
       style="fill:#4d4d4d"
       id="rect4035-0-4-4" />
    <rect
       width="0"
       x="392.50122"
       y="527.10132"
       height="7.857131"
       style="fill:#4d4d4d"
       id="rect4035-5" />
    <rect
       width="0"
       x="388.96075"
       y="528.9007"
       height="7.857131"
       style="fill:#4d4d4d"
       id="rect4035-7" />
    <rect
       width="0"
       x="385.45471"
       y="520.03027"
       height="7.857131"
       style="fill:#4d4d4d"
       id="rect4035-9" />
    <rect
       width="0"
       x="386.11118"
       y="528.7713"
       height="7.857131"
       style="fill:#4d4d4d"
       id="rect4035-96" />
    <rect
       width="0"
       x="382.57071"
       y="530.57062"
       height="7.857131"
       style="fill:#4d4d4d"
       id="rect4035-7-0" />
    <rect
       width="0"
       x="379.06467"
       y="521.70026"
       height="7.857131"
       style="fill:#4d4d4d"
       id="rect4035-9-6" />
    <rect
       width="0"
       x="392.50122"
       y="527.10132"
       height="7.857131"
       style="fill:#4d4d4d"
       id="rect4035-1" />
    <rect
       width="0"
       x="388.96075"
       y="528.9007"
       height="7.857131"
       style="fill:#4d4d4d"
       id="rect4035-7-2" />
    <rect
       width="0"
       x="385.45471"
       y="520.03027"
       height="7.857131"
       style="fill:#4d4d4d"
       id="rect4035-9-0" />
    <rect
       width="0"
       x="386.11118"
       y="528.7713"
       height="7.857131"
       style="fill:#4d4d4d"
       id="rect4035-96-9" />
    <rect
       width="0"
       x="382.57071"
       y="530.57062"
       height="7.857131"
       style="fill:#4d4d4d"
       id="rect4035-7-0-9" />
    <rect
       width="0"
       x="379.06467"
       y="521.70026"
       height="7.857131"
       style="fill:#4d4d4d"
       id="rect4035-9-6-9" />
    <path
       inkscape:connector-curvature="0"
       style="fill:#151c1b;stroke-linejoin:round"
       id="path4218"
       d="m 400.57143,528.798 a 4,4 0 0 0 -4,4 4,4 0 0 0 0.006,0.17187 2.9999869,2.9999869 0 0 0 -2.00586,2.82813 2.9999869,2.9999869 0 0 0 3,3 l 5.5,0 a 3.5,3.5 0 0 0 3.5,-3.5 3.5,3.5 0 0 0 -2.06055,-3.1875 4,4 0 0 0 -3.93945,-3.3125 z m 0,1 a 3,3 0 0 1 3,3 3,3 0 0 1 -0.002,0.0508 2.5,2.5 0 0 1 2.00195,2.44922 2.5,2.5 0 0 1 -2.5,2.5 l -5.5,0 a 1.999994,2 0 0 1 -2,-2 1.999994,2 0 0 1 2,-2 1.999994,2 0 0 1 0.17773,0.008 3,3 0 0 1 -0.17773,-1.00781 3,3 0 0 1 3,-3 z" />
  </g>
</svg>
