<?xml version="1.0" encoding="UTF-8" standalone="no"?>
<svg
   xmlns:dc="http://purl.org/dc/elements/1.1/"
   xmlns:cc="http://creativecommons.org/ns#"
   xmlns:rdf="http://www.w3.org/1999/02/22-rdf-syntax-ns#"
   xmlns:svg="http://www.w3.org/2000/svg"
   xmlns="http://www.w3.org/2000/svg"
   xmlns:xlink="http://www.w3.org/1999/xlink"
   xmlns:sodipodi="http://sodipodi.sourceforge.net/DTD/sodipodi-0.dtd"
   xmlns:inkscape="http://www.inkscape.org/namespaces/inkscape"
   height="64"
   width="64"
   version="1.1"
   id="svg19"
   sodipodi:docname="folder-root.svg"
   inkscape:version="0.92.3 (2405546, 2018-03-11)">
  <metadata
     id="metadata25">
    <rdf:RDF>
      <cc:Work
         rdf:about="">
        <dc:format>image/svg+xml</dc:format>
        <dc:type
           rdf:resource="http://purl.org/dc/dcmitype/StillImage" />
      </cc:Work>
    </rdf:RDF>
  </metadata>
  <defs
     id="defs23">
    <linearGradient
       inkscape:collect="always"
       id="linearGradient836">
      <stop
         style="stop-color:#00978a;stop-opacity:1"
         offset="0"
         id="stop832" />
      <stop
         style="stop-color:#01515b;stop-opacity:1"
         offset="1"
         id="stop834" />
    </linearGradient>
    <linearGradient
       inkscape:collect="always"
       xlink:href="#linearGradient836"
       id="linearGradient838"
       x1="4"
       y1="20"
       x2="60"
       y2="20"
       gradientUnits="userSpaceOnUse" />
  </defs>
  <sodipodi:namedview
     pagecolor="#ffffff"
     bordercolor="#666666"
     borderopacity="1"
     objecttolerance="10"
     gridtolerance="10"
     guidetolerance="10"
     inkscape:pageopacity="0"
     inkscape:pageshadow="2"
     inkscape:window-width="1366"
     inkscape:window-height="705"
     id="namedview21"
     showgrid="false"
     inkscape:zoom="3.6875"
     inkscape:cx="-21.152542"
     inkscape:cy="32"
     inkscape:window-x="0"
     inkscape:window-y="26"
     inkscape:window-maximized="1"
     inkscape:current-layer="svg19" />
  <linearGradient
     id="a"
     gradientUnits="userSpaceOnUse"
     x1="10.305085"
     x2="55.322033"
     y1="26.847458"
     y2="51.254238">
    <stop
       offset="0"
        
       id="stop2"
       style="stop-color:#01748f;stop-opacity:1" />
    <stop
       style="stop-color:#0eb6b8;stop-opacity:1"
       id="stop840"
        
       offset="0.5" />
    <stop
       offset="1"
        
       id="stop4"
       style="stop-color:#2b786f;stop-opacity:1" />
  </linearGradient>
  <path
     d="M4 6v27c0 .554.446 1 1 1h54c.554 0 1-.446 1-1V11.01l-.002-.01H60v-1H32l-4-4z"
      
     id="path7"
     style="fill-opacity:1;fill:url(#linearGradient838)" />
  <path
     d="M3 20v38h58V16H26l-4 4z"
     fill="url(#a)"
     id="path9"
     style="fill-opacity:1;fill:url(#a)" />
  <g
     fill-opacity=".235"
     id="g15">
    <path
       d="M3 20v1h20l3-5-4 4zM28 6l3 5h29v-1H32z"
       fill="#fff"
       id="path11" />
    <path
       d="M4 19v1h18l4-4-6 3zM3 57v1h58v-1z"
       fill="#000"
       id="path13" />
  </g>
  <path
     d="M34 27h-2L22 47h2zm-2 19h10v1H32z"
     fill="#151c1b"
     id="path17" />
</svg>
