<?xml version="1.0" encoding="UTF-8" standalone="no"?>
<!-- Created with Inkscape (http://www.inkscape.org/) -->

<svg
   xmlns:dc="http://purl.org/dc/elements/1.1/"
   xmlns:cc="http://creativecommons.org/ns#"
   xmlns:rdf="http://www.w3.org/1999/02/22-rdf-syntax-ns#"
   xmlns:svg="http://www.w3.org/2000/svg"
   xmlns="http://www.w3.org/2000/svg"
   xmlns:xlink="http://www.w3.org/1999/xlink"
   xmlns:sodipodi="http://sodipodi.sourceforge.net/DTD/sodipodi-0.dtd"
   xmlns:inkscape="http://www.inkscape.org/namespaces/inkscape"
   width="64"
   version="1.1"
   height="64"
   id="svg17"
   sodipodi:docname="folder-network.svg"
   inkscape:version="0.92.3 (2405546, 2018-03-11)">
  <sodipodi:namedview
     pagecolor="#ffffff"
     bordercolor="#666666"
     borderopacity="1"
     objecttolerance="10"
     gridtolerance="10"
     guidetolerance="10"
     inkscape:pageopacity="0"
     inkscape:pageshadow="2"
     inkscape:window-width="1366"
     inkscape:window-height="705"
     id="namedview19"
     showgrid="false"
     inkscape:zoom="3.6875"
     inkscape:cx="-21.152542"
     inkscape:cy="32"
     inkscape:window-x="0"
     inkscape:window-y="26"
     inkscape:window-maximized="1"
     inkscape:current-layer="layer1-5" />
  <defs
     id="defs5455">
    <linearGradient
       inkscape:collect="always"
       id="linearGradient838">
      <stop
         style="stop-color:#00978a;stop-opacity:1"
         offset="0"
         id="stop834" />
      <stop
         style="stop-color:#01515b;stop-opacity:1"
         offset="1"
         id="stop836" />
    </linearGradient>
    <linearGradient
       inkscape:collect="always"
       id="linearGradient4178"
       xlink:href="#linearGradient4172-5"
       y1="509.55008"
       y2="536.40631"
       gradientUnits="userSpaceOnUse"
       x2="437.45279"
       gradientTransform="matrix(1 0 0 0.99967455 0 0.17645)"
       x1="391.89346" />
    <linearGradient
       inkscape:collect="always"
       id="linearGradient4172-5">
      <stop
         style="stop-color:#01748f;stop-opacity:1"
         id="stop4174-6" />
      <stop
         id="stop842"
         style="stop-color:#0eb6b8;stop-opacity:1"
         offset="0.49715978" />
      <stop
         offset="1"
         style="stop-color:#2b786f;stop-opacity:1"
         id="stop4176-6" />
    </linearGradient>
    <linearGradient
       inkscape:collect="always"
       xlink:href="#linearGradient838"
       id="linearGradient840"
       x1="388.57143"
       y1="503.798"
       x2="444.57143"
       y2="503.798"
       gradientUnits="userSpaceOnUse" />
  </defs>
  <metadata
     id="metadata5458">
    <rdf:RDF>
      <cc:Work
         rdf:about="">
        <dc:format>image/svg+xml</dc:format>
        <dc:type
           rdf:resource="http://purl.org/dc/dcmitype/StillImage" />
      </cc:Work>
    </rdf:RDF>
  </metadata>
  <g
     inkscape:label="Capa 1"
     inkscape:groupmode="layer"
     id="layer1"
     transform="matrix(1 0 0 1 -384.57143 -483.798)">
    <g
       inkscape:label="Capa 1"
       id="layer1-5"
       transform="matrix(1 0 0 1 0 0.000005)">
      <path
         inkscape:connector-curvature="0"
         style="fill:url(#linearGradient840);fill-opacity:1"
         id="rect4180"
         d="m 388.57143,489.79812 0,5 0,22 c 0,0.55373 0.446,1 1,1 l 54,0 c 0.55399,0 1,-0.44627 1,-1 l 0,-21.99023 c 0,-0.003 -0.002,-0.006 -0.002,-0.01 l 0.002,0 0,-1 -28,0 -4,-4 -24,0 z" />
      <path
         inkscape:connector-curvature="0"
         style="fill:url(#linearGradient4178);fill-opacity:1"
         id="rect4113"
         d="m 410.57143,499.79812 -4,4 -19,0 0,1 0.002,0 c -5e-5,0.004 -0.002,0.008 -0.002,0.0117 l 0,35.98828 0,1 1,0 56,0 1,0 0,-1 0,-35.98828 0,-0.0117 0,-5 z" />
      <path
         inkscape:connector-curvature="0"
         style="fill:#ffffff;fill-opacity:0.235294;fill-rule:evenodd"
         id="path4224"
         d="m 387.57144,503.79812 0,1 19.99999,0 3,-5 -4,4 z" />
      <path
         inkscape:connector-curvature="0"
         style="fill-opacity:0.235294;fill-rule:evenodd"
         id="path4228"
         d="m 388.57143,502.79812 0,1 18,0 4,-4 -6,3 z" />
      <path
         inkscape:connector-curvature="0"
         style="fill-opacity:0.235294"
         id="path4151-2"
         d="m 387.57143,540.7981 0,1 1,0 56,0 1,0 0,-1 -1,0 -56,0 -1,0 z" />
      <path
         inkscape:connector-curvature="0"
         style="fill:#ffffff;fill-opacity:0.235294;fill-rule:evenodd"
         id="path4196"
         d="m 28,6 3,5 2,0 27,0 0,-1 -27,0 -1,0 z"
         transform="matrix(1 0 0 1 384.57143 483.798)" />
    </g>
    <path
       style="fill:#151c1b;color:#000000;fill-rule:evenodd;stroke-width:0.1"
       id="path3858"
       d="M 38.900391 27 A 2 2 0 0 0 36.900391 29 A 2 2 0 0 0 38.900391 31 A 2 2 0 0 0 40.900391 29 A 2 2 0 0 0 38.900391 27 z M 35.400391 30 A 0.5 0.5 0 0 0 34.900391 30.5 A 0.5 0.5 0 0 0 35.400391 31 A 0.5 0.5 0 0 0 35.900391 30.5 A 0.5 0.5 0 0 0 35.400391 30 z M 32.400391 32 A 0.5 0.5 0 0 0 31.900391 32.5 A 0.5 0.5 0 0 0 32.400391 33 A 0.5 0.5 0 0 0 32.900391 32.5 A 0.5 0.5 0 0 0 32.400391 32 z M 29.400391 34 A 0.5 0.5 0 0 0 28.900391 34.5 A 0.5 0.5 0 0 0 29.400391 35 A 0.5 0.5 0 0 0 29.900391 34.5 A 0.5 0.5 0 0 0 29.400391 34 z M 24.900391 35 A 2 2 0 0 0 22.900391 37 A 2 2 0 0 0 24.900391 39 A 2 2 0 0 0 26.900391 37 A 2 2 0 0 0 24.900391 35 z M 29.400391 39 A 0.5 0.5 0 0 0 28.900391 39.5 A 0.5 0.5 0 0 0 29.400391 40 A 0.5 0.5 0 0 0 29.900391 39.5 A 0.5 0.5 0 0 0 29.400391 39 z M 32.400391 41 A 0.5 0.5 0 0 0 31.900391 41.5 A 0.5 0.5 0 0 0 32.400391 42 A 0.5 0.5 0 0 0 32.900391 41.5 A 0.5 0.5 0 0 0 32.400391 41 z M 35.400391 43 A 0.5 0.5 0 0 0 34.900391 43.5 A 0.5 0.5 0 0 0 35.400391 44 A 0.5 0.5 0 0 0 35.900391 43.5 A 0.5 0.5 0 0 0 35.400391 43 z M 38.900391 43 A 2 2 0 0 0 36.900391 45 A 2 2 0 0 0 38.900391 47 A 2 2 0 0 0 40.900391 45 A 2 2 0 0 0 38.900391 43 z "
       transform="matrix(1 0 0 1 384.57143 483.798)" />
  </g>
</svg>
