<?xml version="1.0" encoding="UTF-8" standalone="no"?>
<svg
   xmlns:dc="http://purl.org/dc/elements/1.1/"
   xmlns:cc="http://creativecommons.org/ns#"
   xmlns:rdf="http://www.w3.org/1999/02/22-rdf-syntax-ns#"
   xmlns:svg="http://www.w3.org/2000/svg"
   xmlns="http://www.w3.org/2000/svg"
   xmlns:xlink="http://www.w3.org/1999/xlink"
   xmlns:sodipodi="http://sodipodi.sourceforge.net/DTD/sodipodi-0.dtd"
   xmlns:inkscape="http://www.inkscape.org/namespaces/inkscape"
   height="32"
   width="32"
   version="1.1"
   id="svg25"
   sodipodi:docname="folder-games.svg"
   inkscape:version="0.92.3 (2405546, 2018-03-11)">
  <metadata
     id="metadata31">
    <rdf:RDF>
      <cc:Work
         rdf:about="">
        <dc:format>image/svg+xml</dc:format>
        <dc:type
           rdf:resource="http://purl.org/dc/dcmitype/StillImage" />
      </cc:Work>
    </rdf:RDF>
  </metadata>
  <defs
     id="defs29">
    <linearGradient
       inkscape:collect="always"
       id="linearGradient842">
      <stop
         style="stop-color:#00978a;stop-opacity:1"
         offset="0"
         id="stop838" />
      <stop
         style="stop-color:#01515b;stop-opacity:1"
         offset="1"
         id="stop840" />
    </linearGradient>
    <linearGradient
       inkscape:collect="always"
       xlink:href="#linearGradient842"
       id="linearGradient844"
       x1="2"
       y1="7"
       x2="30"
       y2="7"
       gradientUnits="userSpaceOnUse" />
  </defs>
  <sodipodi:namedview
     pagecolor="#ffffff"
     bordercolor="#666666"
     borderopacity="1"
     objecttolerance="10"
     gridtolerance="10"
     guidetolerance="10"
     inkscape:pageopacity="0"
     inkscape:pageshadow="2"
     inkscape:window-width="1366"
     inkscape:window-height="705"
     id="namedview27"
     showgrid="false"
     inkscape:zoom="7.375"
     inkscape:cx="-10.576271"
     inkscape:cy="16"
     inkscape:window-x="0"
     inkscape:window-y="26"
     inkscape:window-maximized="1"
     inkscape:current-layer="svg25" />
  <linearGradient
     id="a"
     gradientUnits="userSpaceOnUse"
     x2="27.661016"
     y1="13.423729"
     y2="24.542374"
     x1="4.2033896">
    <stop
       offset="0"
        
       id="stop2"
       style="stop-color:#01748f;stop-opacity:1" />
    <stop
       style="stop-color:#0eb6b8;stop-opacity:1"
       id="stop846"
        
       offset="0.5" />
    <stop
       offset="1"
        
       id="stop4"
       style="stop-color:#2b786f;stop-opacity:1" />
  </linearGradient>
  <path
     d="m2 3v8h28v-6h-14l-2-2z"
      
     fill-rule="evenodd"
     id="path7"
     style="fill-opacity:1;fill:url(#linearGradient844)" />
  <path
     d="m13 8-2 1h-9v1h10z"
     fill-opacity=".235"
     fill-rule="evenodd"
     id="path9" />
  <path
     d="m13 8-2 2h-10v19h30v-21z"
     fill="url(#a)"
     id="path11"
     style="fill-opacity:1;fill:url(#a)" />
  <g
     fill-opacity=".235"
     id="g17">
    <path
       d="m13 8-2 2h-10v1h11zm1-5 1 3h15v-1h-14z"
       fill="#fff"
       fill-rule="evenodd"
       id="path13" />
    <path
       d="m1 28h30v1h-30z"
       id="path15" />
  </g>
  <g
     fill="#151c1b"
     id="g23">
    <path
       d="m13 17v1h-1v1h1v1h1v-1h1v-1h-1v-1zm5.5-.1a.6.6 0 0 0 -.6.6.6.6 0 0 0 .6.6.6.6 0 0 0 .6-.6.6.6 0 0 0 -.6-.6zm-1 1a.6.6 0 0 0 -.6.6.6.6 0 0 0 .6.6.6.6 0 0 0 .6-.6.6.6 0 0 0 -.6-.6zm2 0a.6.6 0 0 0 -.6.6.6.6 0 0 0 .6.6.6.6 0 0 0 .6-.6.6.6 0 0 0 -.6-.6zm-1 1a.6.6 0 0 0 -.6.6.6.6 0 0 0 .6.6.6.6 0 0 0 .6-.6.6.6 0 0 0 -.6-.6z"
       id="path19" />
    <path
       d="m12 15a2 4 0 0 0 -2 4v2.5a1.5 1.5 0 0 0 2.56 1.06l.944-.943a1.5 1.5 0 0 0 .996.383 1.5 1.5 0 0 0 1.5-1.5 1.5 1.5 0 0 0 2.498 1.12l.941.94a1.5 1.5 0 0 0 2.561-1.06v-2.5a2 4 0 0 0 -2-4zm0 1h8a1 3 0 0 1 1 3v2.5a.5.5 0 0 1 -.854.354l-1.853-1.854h-.293v.5a.5.5 0 0 1 -1 0v-.5h-2v.5a.5.5 0 0 1 -1 0v-.5h-.293l-1.853 1.854a.5.5 0 0 1 -.854-.354v-2.5a1 3 0 0 1 1-3z"
       id="path21" />
  </g>
</svg>
