<?xml version="1.0" encoding="UTF-8" standalone="no"?>
<svg
   xmlns:dc="http://purl.org/dc/elements/1.1/"
   xmlns:cc="http://creativecommons.org/ns#"
   xmlns:rdf="http://www.w3.org/1999/02/22-rdf-syntax-ns#"
   xmlns:svg="http://www.w3.org/2000/svg"
   xmlns="http://www.w3.org/2000/svg"
   xmlns:xlink="http://www.w3.org/1999/xlink"
   xmlns:sodipodi="http://sodipodi.sourceforge.net/DTD/sodipodi-0.dtd"
   xmlns:inkscape="http://www.inkscape.org/namespaces/inkscape"
   height="64"
   width="64"
   version="1.1"
   id="svg27"
   sodipodi:docname="folder-games.svg"
   inkscape:version="0.92.3 (2405546, 2018-03-11)">
  <metadata
     id="metadata33">
    <rdf:RDF>
      <cc:Work
         rdf:about="">
        <dc:format>image/svg+xml</dc:format>
        <dc:type
           rdf:resource="http://purl.org/dc/dcmitype/StillImage" />
      </cc:Work>
    </rdf:RDF>
  </metadata>
  <defs
     id="defs31">
    <linearGradient
       inkscape:collect="always"
       id="linearGradient847">
      <stop
         style="stop-color:#00978a;stop-opacity:1"
         offset="0"
         id="stop843" />
      <stop
         style="stop-color:#01515b;stop-opacity:1"
         offset="1"
         id="stop845" />
    </linearGradient>
    <linearGradient
       inkscape:collect="always"
       xlink:href="#linearGradient847"
       id="linearGradient849"
       x1="4"
       y1="20"
       x2="60"
       y2="20"
       gradientUnits="userSpaceOnUse" />
  </defs>
  <sodipodi:namedview
     pagecolor="#ffffff"
     bordercolor="#666666"
     borderopacity="1"
     objecttolerance="10"
     gridtolerance="10"
     guidetolerance="10"
     inkscape:pageopacity="0"
     inkscape:pageshadow="2"
     inkscape:window-width="1366"
     inkscape:window-height="705"
     id="namedview29"
     showgrid="false"
     inkscape:zoom="3.6875"
     inkscape:cx="-21.152542"
     inkscape:cy="32"
     inkscape:window-x="0"
     inkscape:window-y="26"
     inkscape:window-maximized="1"
     inkscape:current-layer="svg27" />
  <linearGradient
     id="a"
     gradientTransform="matrix(1 0 0 .99967 0 .176)"
     gradientUnits="userSpaceOnUse"
     x2="439.35065"
     y1="510.3667"
     y2="534.23895"
     x1="394.60489">
    <stop
       offset="0"
        
       id="stop2"
       style="stop-color:#01748f;stop-opacity:1" />
    <stop
       id="stop851"
        
       offset="0.5"
       style="stop-color:#0eb6b8;stop-opacity:1" />
    <stop
       offset="1"
        
       id="stop4"
       style="stop-color:#2b786f;stop-opacity:1" />
  </linearGradient>
  <path
     d="m4 6v27c0 .554.446 1 1 1h54c.554 0 1-.446 1-1v-21.99l-.002-.01h.002v-1h-28l-4-4z"
      
     id="path7"
     style="fill-opacity:1;fill:url(#linearGradient849)" />
  <path
     d="m410.571 499.798-4 4h-19v1h.002l-.002.012v36.988h58v-42z"
     fill="url(#a)"
     transform="translate(-384.571 -483.798)"
     id="path9"
     style="fill-opacity:1;fill:url(#a)" />
  <g
     fill-opacity=".235"
     id="g19">
    <path
       d="m3 20v1h20l3-5-4 4z"
       fill="#fff"
       fill-rule="evenodd"
       id="path11" />
    <path
       d="m4 19v1h18l4-4-6 3z"
       fill-rule="evenodd"
       id="path13" />
    <path
       d="m3 57v1h58v-1h-57z"
       id="path15" />
    <path
       d="m28 6 3 5h29v-1h-28z"
       fill="#fff"
       fill-rule="evenodd"
       id="path17" />
  </g>
  <g
     fill="#151c1b"
     id="g25">
    <path
       d="m25 30c-2.21 0-4 2.685-4 5.999v6.998c0 1.78 2.154 2.673 3.414 1.413l2.414-2.413h.676a2.5 2.5 0 0 0 1.996 1 2.5 2.5 0 0 0 1.992-1h.906a2.5 2.5 0 0 0 1.997 1 2.5 2.5 0 0 0 1.992-1h.785l2.414 2.413c1.26 1.26 3.414.367 3.414-1.413v-6.998c0-3.314-1.79-5.999-4-5.999zm0 1h14c1.657 0 3 2.238 3 4.999v6.998c0 .89-1.077 1.336-1.707.707l-2.707-2.707h-1.779a1.5 1.5 0 0 1 -1.412 1 1.5 1.5 0 0 1 -1.395-.955v-.045h-2.088a1.5 1.5 0 0 1 -1.412 1 1.5 1.5 0 0 1 -1.412-1h-1.674l-2.707 2.707c-.63.63-1.707.184-1.707-.707v-6.998c0-2.76 1.343-5 3-5z"
       id="path21" />
    <path
       d="m25 31.996v2h-2v2h2v2h2v-2h2v-2h-2v-2zm11 7.5a1.5 1.5 0 0 1 -1.5 1.5 1.5 1.5 0 0 1 -1.5-1.5 1.5 1.5 0 0 1 1.5-1.5 1.5 1.5 0 0 1 1.5 1.5zm-5 0a1.5 1.5 0 0 1 -1.5 1.5 1.5 1.5 0 0 1 -1.5-1.5 1.5 1.5 0 0 1 1.5-1.5 1.5 1.5 0 0 1 1.5 1.5zm8-2.5a1 1 0 0 1 -1 1 1 1 0 0 1 -1-1 1 1 0 0 1 1-1 1 1 0 0 1 1 1zm2-2a1 1 0 0 1 -1 1 1 1 0 0 1 -1-1 1 1 0 0 1 1-1 1 1 0 0 1 1 1zm-2-2a1 1 0 0 1 -1 1 1 1 0 0 1 -1-1 1 1 0 0 1 1-1 1 1 0 0 1 1 1zm-2 2a1 1 0 0 1 -1 1 1 1 0 0 1 -1-1 1 1 0 0 1 1-1 1 1 0 0 1 1 1z"
       id="path23" />
  </g>
</svg>
