<?xml version="1.0" encoding="UTF-8" standalone="no"?>
<!-- Created with Inkscape (http://www.inkscape.org/) -->

<svg
   xmlns:dc="http://purl.org/dc/elements/1.1/"
   xmlns:cc="http://creativecommons.org/ns#"
   xmlns:rdf="http://www.w3.org/1999/02/22-rdf-syntax-ns#"
   xmlns:svg="http://www.w3.org/2000/svg"
   xmlns="http://www.w3.org/2000/svg"
   xmlns:xlink="http://www.w3.org/1999/xlink"
   xmlns:sodipodi="http://sodipodi.sourceforge.net/DTD/sodipodi-0.dtd"
   xmlns:inkscape="http://www.inkscape.org/namespaces/inkscape"
   width="64"
   version="1.1"
   height="64"
   id="svg19"
   sodipodi:docname="folder-image-people.svg"
   inkscape:version="0.92.3 (2405546, 2018-03-11)">
  <sodipodi:namedview
     pagecolor="#ffffff"
     bordercolor="#666666"
     borderopacity="1"
     objecttolerance="10"
     gridtolerance="10"
     guidetolerance="10"
     inkscape:pageopacity="0"
     inkscape:pageshadow="2"
     inkscape:window-width="1366"
     inkscape:window-height="705"
     id="namedview21"
     showgrid="false"
     inkscape:zoom="3.6875"
     inkscape:cx="-21.152542"
     inkscape:cy="32"
     inkscape:window-x="0"
     inkscape:window-y="26"
     inkscape:window-maximized="1"
     inkscape:current-layer="layer1-8" />
  <defs
     id="defs5455">
    <linearGradient
       inkscape:collect="always"
       id="linearGradient835">
      <stop
         style="stop-color:#00978a;stop-opacity:1"
         offset="0"
         id="stop831" />
      <stop
         style="stop-color:#01515b;stop-opacity:1"
         offset="1"
         id="stop833" />
    </linearGradient>
    <linearGradient
       inkscape:collect="always"
       id="linearGradient4178"
       xlink:href="#linearGradient4172-5"
       y1="510.63519"
       y2="536.67755"
       gradientUnits="userSpaceOnUse"
       x2="439.0799"
       gradientTransform="matrix(1 0 0 0.99967455 0 0.17645)"
       x1="396.23245" />
    <linearGradient
       inkscape:collect="always"
       id="linearGradient4172-5">
      <stop
         style="stop-color:#01748f;stop-opacity:1"
         id="stop4174-6" />
      <stop
         id="stop839"
         style="stop-color:#0eb6b8;stop-opacity:1"
         offset="0.5" />
      <stop
         offset="1"
         style="stop-color:#2b786f;stop-opacity:1"
         id="stop4176-6" />
    </linearGradient>
    <linearGradient
       inkscape:collect="always"
       xlink:href="#linearGradient835"
       id="linearGradient837"
       x1="388.57143"
       y1="503.798"
       x2="444.57143"
       y2="503.798"
       gradientUnits="userSpaceOnUse" />
  </defs>
  <metadata
     id="metadata5458">
    <rdf:RDF>
      <cc:Work
         rdf:about="">
        <dc:format>image/svg+xml</dc:format>
        <dc:type
           rdf:resource="http://purl.org/dc/dcmitype/StillImage" />
      </cc:Work>
    </rdf:RDF>
  </metadata>
  <g
     inkscape:label="Capa 1"
     inkscape:groupmode="layer"
     id="layer1"
     transform="matrix(1 0 0 1 -384.57143 -483.798)">
    <g
       inkscape:label="Capa 1"
       id="layer1-8"
       transform="matrix(1 0 0 1 0 0.000005)">
      <path
         inkscape:connector-curvature="0"
         style="fill:url(#linearGradient837);fill-opacity:1"
         id="rect4180"
         d="m 388.57143,489.79812 0,5 0,22 c 0,0.55373 0.446,1 1,1 l 54,0 c 0.55399,0 1,-0.44627 1,-1 l 0,-21.99023 c 0,-0.003 -0.002,-0.006 -0.002,-0.01 l 0.002,0 0,-1 -28,0 -4,-4 -24,0 z" />
      <path
         inkscape:connector-curvature="0"
         style="fill:url(#linearGradient4178);fill-opacity:1"
         id="rect4113"
         d="m 410.57143,499.79812 -4,4 -19,0 0,1 0.002,0 c -5e-5,0.004 -0.002,0.008 -0.002,0.0117 l 0,35.98828 0,1 1,0 56,0 1,0 0,-1 0,-35.98828 0,-0.0117 0,-5 z" />
      <path
         inkscape:connector-curvature="0"
         style="fill:#ffffff;fill-opacity:0.235294;fill-rule:evenodd"
         id="path4224"
         d="m 387.57144,503.79812 0,1 19.99999,0 3,-5 -4,4 z" />
      <path
         inkscape:connector-curvature="0"
         style="fill-opacity:0.235294;fill-rule:evenodd"
         id="path4228"
         d="m 388.57143,502.79812 0,1 18,0 4,-4 -6,3 z" />
      <path
         inkscape:connector-curvature="0"
         style="fill-opacity:0.235294"
         id="path4151-2"
         d="m 387.57143,540.7981 0,1 1,0 56,0 1,0 0,-1 -1,0 -56,0 -1,0 z" />
      <path
         inkscape:connector-curvature="0"
         style="fill:#ffffff;fill-opacity:0.235294;fill-rule:evenodd"
         id="path4196"
         d="m 28,6 3,5 2,0 27,0 0,-1 -27,0 -1,0 z"
         transform="matrix(1 0 0 1 384.57143 483.798)" />
    </g>
    <path
       style="fill:#151c1b"
       id="path4188"
       d="M 32 27 A 4.9999962 4.9999962 0 0 0 27 32 A 4.9999962 4.9999962 0 0 0 32 37 A 4.9999962 4.9999962 0 0 0 37 32 A 4.9999962 4.9999962 0 0 0 32 27 z M 32 28 A 4 4 0 0 1 36 32 A 4 4 0 0 1 32 36 A 4 4 0 0 1 28 32 A 4 4 0 0 1 32 28 z "
       transform="matrix(1 0 0 1 384.57143 483.798)" />
    <path
       style="fill:#151c1b"
       id="path4193"
       d="M 32 38 A 9.9999866 9.9999866 0 0 0 22.060547 47 L 23.060547 47 A 9 9 0 0 1 32 39 A 9 9 0 0 1 40.933594 47 L 41.949219 47 A 9.9999866 9.9999866 0 0 0 32 38 z "
       transform="matrix(1 0 0 1 384.57143 483.798)" />
    <rect
       width="18"
       x="407.57144"
       y="529.79797"
       height="1"
       style="fill:#151c1b"
       id="rect4201" />
  </g>
</svg>
