<svg xmlns="http://www.w3.org/2000/svg" version="1.0" width="256" height="256" preserveAspectRatio="xMidYMid meet" style=""><rect id="backgroundrect" width="100%" height="100%" x="0" y="0" fill="none" stroke="none"/>


<g class="currentLayer" style=""><title>Layer 1</title><g transform="translate(0,256) scale(0.10000000149011612,-0.10000000149011612) " fill="#dbdcdd" stroke="none" id="svg_1" class="selected" fill-opacity="1">
<path d="M1095 2270 c-99 -137 -181 -254 -183 -260 -2 -6 42 -10 127 -10 l131 0 0 -555 0 -555 -87 0 -88 1 -68 207 c-119 359 -253 677 -346 820 -23 34 -41 65 -41 67 0 3 33 5 73 6 107 1 116 7 70 50 -105 99 -267 209 -389 265 -64 30 -206 74 -237 74 -5 0 12 -24 39 -52 304 -324 556 -865 709 -1523 l32 -140 164 -5 164 -5 5 -305 5 -305 117 -3 118 -3 2 308 3 308 145 3 145 3 43 178 c88 369 177 623 317 906 127 257 237 426 369 562 33 34 57 65 54 69 -12 11 -190 -46 -271 -87 -104 -51 -202 -117 -311 -208 -102 -85 -102 -89 22 -90 39 -1 72 -4 72 -7 0 -4 -20 -36 -44 -73 -110 -166 -205 -411 -332 -853 l-48 -168 -83 0 -83 0 2 553 3 552 113 3 c62 1 112 6 110 10 -7 17 -353 511 -358 511 -3 0 -86 -112 -185 -249z" id="svg_2" fill="#dbdcdd"/>
</g></g></svg>